# xmcd
#
# Track frame offsets: 
#        150
#        19466
#        35533
#        57418
#        75661
#        95169
#        123347
#        149517
#        181449
#        208501
#        230086
#        244943
#        264438
#        287189
#        303670
#        317586
#        337691
#
# Disc length: 4782 seconds
#
# Revision: 0
# Processed by: cddbd v1.5.2PL0 Copyright (c) Steve Scherf et al.
# Submitted via: ExactAudioCopy v1.3
#
DISCID=0012ac11
DTITLE=Various Artist - Akella Presents - vol.120 - Blues-Rock  CD1
DYEAR=2017
DGENRE=Blues-Rock
TTITLE0=Gary Cain - Pipes and Spoons
TTITLE1=Bonafide - Back In Flames
TTITLE2=Bill Durst - 21st Century Blues
TTITLE3=Rhino Bucket - Hello Citizens
TTITLE4=Marcus Malone - House Of Blues
TTITLE5=Wille And The Bandits - Bad News
TTITLE6=Johnny No - Girl 24
TTITLE7=Robin Trower - If You Believe In Me
TTITLE8=Gov't Mule - Stone Cold Rage
TTITLE9=Mean Mother - The Rocker
TTITLE10=The Rex Carroll Band - Circle Of Love
TTITLE11=The Snake Charmers - No Mercy
TTITLE12=Jeff Westlake - Heart to Burn
TTITLE13=The Wellbred Bastards - Hurt Your Soul
TTITLE14=Baleful Creed - Levy
TTITLE15=Solomon Cole - Crooked Ways
TTITLE16=Joshua Batten - Not Your Kind Of Man
EXTD=
EXTT0=
EXTT1=
EXTT2=
EXTT3=
EXTT4=
EXTT5=
EXTT6=
EXTT7=
EXTT8=
EXTT9=
EXTT10=
EXTT11=
EXTT12=
EXTT13=
EXTT14=
EXTT15=
EXTT16=
PLAYORDER=
